<?xml version="1.0" encoding="UTF-8" standalone="no"?>
<!-- Created with Inkscape (http://www.inkscape.org/) -->

<svg
   xmlns:dc="http://purl.org/dc/elements/1.1/"
   xmlns:cc="http://creativecommons.org/ns#"
   xmlns:rdf="http://www.w3.org/1999/02/22-rdf-syntax-ns#"
   xmlns:svg="http://www.w3.org/2000/svg"
   xmlns="http://www.w3.org/2000/svg"
   xmlns:sodipodi="http://sodipodi.sourceforge.net/DTD/sodipodi-0.dtd"
   xmlns:inkscape="http://www.inkscape.org/namespaces/inkscape"
   inkscape:version="0.48.2 r9819"
   version="1.1"
   id="svg4410"
   height="64px"
   width="64px"
   sodipodi:docname="aotf-ui.svg">
  <sodipodi:namedview
     id="base"
     pagecolor="#ffffff"
     bordercolor="#666666"
     borderopacity="1.0"
     inkscape:pageopacity="0.0"
     inkscape:pageshadow="2"
     inkscape:zoom="11"
     inkscape:cx="1.342065"
     inkscape:cy="34.739869"
     inkscape:current-layer="g5024"
     showgrid="true"
     inkscape:document-units="px"
     inkscape:grid-bbox="true"
     inkscape:window-width="1680"
     inkscape:window-height="1026"
     inkscape:window-x="0"
     inkscape:window-y="24"
     inkscape:window-maximized="1" />
  <defs
     id="defs4412">
    <linearGradient
       id="linearGradient5272">
      <stop
         id="stop5280"
         offset="0"
         style="stop-color:#1822a5;stop-opacity:0.86153847;" />
      <stop
         style="stop-color:#0c2752;stop-opacity:0.37254902;"
         offset="0.375"
         id="stop5286" />
      <stop
         style="stop-color:#083735;stop-opacity:0.24705882;"
         offset="0.75"
         id="stop5282" />
      <stop
         id="stop5284"
         offset="0.875"
         style="stop-color:#041b1a;stop-opacity:0.12156863;" />
      <stop
         style="stop-color:#000000;stop-opacity:0;"
         offset="1"
         id="stop5276" />
    </linearGradient>
  </defs>
  <metadata
     id="metadata4415">
    <rdf:RDF>
      <cc:Work
         rdf:about="">
        <dc:format>image/svg+xml</dc:format>
        <dc:type
           rdf:resource="http://purl.org/dc/dcmitype/StillImage" />
        <dc:title />
      </cc:Work>
    </rdf:RDF>
  </metadata>
  <g
     id="layer1"
     inkscape:label="Layer 1"
     inkscape:groupmode="layer">
    <path
       id="path5244"
       title="t sin(3*t)"
       d="m 39.383175,30.074444 c 0.293427,-2.543425 0.586851,-5.078935 0.880279,-7.104237 0.293426,-2.025304 0.586851,-3.525796 0.880279,-4.20703 0.293424,-0.681235 0.58685,-0.53479 0.880276,0.40586 0.293427,0.940651 0.586852,2.674312 0.880278,4.853237 0.293428,2.178926 0.586853,4.792791 0.880279,7.321396 0.293425,2.528605 0.586853,4.956705 0.880279,6.803788 0.293424,1.847083 0.58685,3.099204 0.880277,3.511501 0.293426,0.412295 0.586852,-0.02219 0.880279,-1.212825 0.293426,-1.190632 0.586851,-3.134542 0.880278,-5.442545 0.293424,-2.308002 0.586852,-4.968579 0.880277,-7.452718 0.293425,-2.484138 0.586853,-4.776361 0.880278,-6.423569 0.293426,-1.647209 0.586854,-2.636278 0.880278,-2.774802 0.293427,-0.138524 0.586853,0.578917 0.880279,2.005571 0.293427,1.426652 0.586853,3.558021 0.880279,5.968041 0.293424,2.41002 0.58685,5.086115 0.880276,7.496664 0.293427,2.410548 0.586853,4.54002 0.880279,5.968042 0.293427,1.428021 0.586851,2.142442 0.880278,2.00557 0.293428,-0.136873 0.586852,-1.128853 0.880278,-2.774801 0.293426,-1.645949 0.586852,-3.939787 0.880279,-6.423571 0.293424,-2.483783 0.586852,-5.144021 0.880277,-7.452717 0.293426,-2.308697 0.586853,-4.250452 0.880279,-5.442545 0.293426,-1.192092 0.586852,-1.62349 0.880279,-1.212825 0.293424,0.410664 0.58685,1.665554 0.880276,3.511501 0.293427,1.845946 0.586853,4.275361 0.880278,6.803787 0.293428,2.528426 0.586854,5.141619 0.880279,7.321396 0.293426,2.179778 0.586852,3.911051 0.880278,4.853237 0.293425,0.942187 0.586853,1.085504 0.880279,0.405862 0.293425,-0.679641 0.586851,-2.182728 0.880277,-4.207031 0.293427,-2.024303 0.586853,-4.560812 0.880278,-7.104237"
       style="opacity:0.72427984000000001;fill:#000000;fill-opacity:0;stroke:#571b32;stroke-width:1.22427248999999994;stroke-miterlimit:4;stroke-opacity:1;stroke-dasharray:none"
       inkscape:connector-curvature="0" />
    <path
       style="fill:none;stroke:#2d5ce8;stroke-width:3;stroke-linecap:butt;stroke-linejoin:miter;stroke-miterlimit:4;stroke-opacity:1;stroke-dasharray:none"
       d="m 19.930203,46.128565 0,19"
       id="path5292"
       inkscape:connector-curvature="0" />
    <path
       style="fill:none;stroke:#94c051;stroke-width:3;stroke-linecap:butt;stroke-linejoin:miter;stroke-miterlimit:4;stroke-opacity:1;stroke-dasharray:none"
       d="m 22.884547,46.129483 0,19.284731"
       id="path5294"
       inkscape:connector-curvature="0" />
    <path
       style="fill:none;stroke:#e74848;stroke-width:3;stroke-linecap:butt;stroke-linejoin:miter;stroke-miterlimit:4;stroke-opacity:1;stroke-dasharray:none"
       d="m 25.712974,46.129484 0,19.220448"
       id="path5296"
       inkscape:connector-curvature="0" />
    <path
       style="fill:none;stroke:#2d5ce8;stroke-width:3;stroke-linecap:butt;stroke-linejoin:miter;stroke-miterlimit:4;stroke-opacity:1;stroke-dasharray:none"
       d="M 18.499999,15.363636 1.5254678,-1.7535522"
       id="path5266"
       inkscape:connector-curvature="0"
       sodipodi:nodetypes="cc" />
    <path
       style="fill:none;stroke:#94c051;stroke-width:3;stroke-linecap:butt;stroke-linejoin:miter;stroke-miterlimit:4;stroke-opacity:1;stroke-dasharray:none"
       d="m 21.318183,14.590909 -9.636365,-16"
       id="path5268"
       inkscape:connector-curvature="0"
       sodipodi:nodetypes="cc" />
    <path
       style="fill:none;stroke:#e74848;stroke-width:3;stroke-linecap:butt;stroke-linejoin:miter;stroke-opacity:1;stroke-miterlimit:4;stroke-dasharray:none"
       d="M 24,13.636364 24.090909,-6.7537471e-8"
       id="path5270"
       inkscape:connector-curvature="0" />
    <g
       id="g5024">
      <rect
         y="13.454545"
         x="3.2727273"
         height="33.090908"
         width="36"
         id="rect4418"
         style="fill:#a3cbd2;fill-opacity:1;stroke:none" />
      <rect
         y="13.090909"
         x="38.909092"
         height="34"
         width="1.2727287"
         id="rect4928"
         style="fill:#a53131;fill-opacity:1;stroke:none" />
      <path
         sodipodi:open="true"
         sodipodi:end="5.1082657"
         sodipodi:start="4.3161992"
         transform="matrix(0,-1,1,0,77.454544,0.18181846)"
         d="m -46.306896,-39.357304 a 42.727272,24.727272 0 0 1 32.965087,-0.003"
         sodipodi:ry="24.727272"
         sodipodi:rx="42.727272"
         sodipodi:cy="-16.545454"
         sodipodi:cx="-29.818182"
         id="path4932"
         style="fill:none;stroke:#264878;stroke-opacity:0.70319635"
         sodipodi:type="arc" />
      <path
         sodipodi:type="arc"
         style="fill:none;stroke:#264878;stroke-opacity:0.67579907"
         id="path4934"
         sodipodi:cx="-29.818182"
         sodipodi:cy="-16.545454"
         sodipodi:rx="42.727272"
         sodipodi:ry="24.727272"
         d="m -46.306896,-39.357304 a 42.727272,24.727272 0 0 1 32.965087,-0.003"
         transform="matrix(0,-1,1,0,73.78409,0.18181846)"
         sodipodi:start="4.3161992"
         sodipodi:end="5.1082657"
         sodipodi:open="true" />
      <path
         sodipodi:open="true"
         sodipodi:end="5.1082657"
         sodipodi:start="4.3161992"
         transform="matrix(0,-1,1,0,70.113637,0.18181846)"
         d="m -46.306896,-39.357304 a 42.727272,24.727272 0 0 1 32.965087,-0.003"
         sodipodi:ry="24.727272"
         sodipodi:rx="42.727272"
         sodipodi:cy="-16.545454"
         sodipodi:cx="-29.818182"
         id="path4936"
         style="fill:none;stroke:#264878;stroke-opacity:0.64840178"
         sodipodi:type="arc" />
      <path
         sodipodi:type="arc"
         style="fill:none;stroke:#264878;stroke-opacity:0.52511417"
         id="path4938"
         sodipodi:cx="-29.818182"
         sodipodi:cy="-16.545454"
         sodipodi:rx="42.727272"
         sodipodi:ry="24.727272"
         d="m -46.306896,-39.357304 a 42.727272,24.727272 0 0 1 32.965087,-0.003"
         transform="matrix(0,-1,1,0,66.443182,0.18181846)"
         sodipodi:start="4.3161992"
         sodipodi:end="5.1082657"
         sodipodi:open="true" />
      <path
         sodipodi:open="true"
         sodipodi:end="5.1082657"
         sodipodi:start="4.3161992"
         transform="matrix(0,-1,1,0,62.772726,0.18181846)"
         d="m -46.306896,-39.357304 a 42.727272,24.727272 0 0 1 32.965087,-0.003"
         sodipodi:ry="24.727272"
         sodipodi:rx="42.727272"
         sodipodi:cy="-16.545454"
         sodipodi:cx="-29.818182"
         id="path4940"
         style="fill:none;stroke:#264878;stroke-opacity:0.38356168"
         sodipodi:type="arc" />
      <path
         sodipodi:type="arc"
         style="fill:none;stroke:#264878;stroke-opacity:0.26940637"
         id="path4942"
         sodipodi:cx="-29.818182"
         sodipodi:cy="-16.545454"
         sodipodi:rx="42.727272"
         sodipodi:ry="24.727272"
         d="m -46.306896,-39.357304 a 42.727272,24.727272 0 0 1 32.965087,-0.003"
         transform="matrix(0,-1,1,0,59.102274,0.18181846)"
         sodipodi:start="4.3161992"
         sodipodi:end="5.1082657"
         sodipodi:open="true" />
      <path
         sodipodi:open="true"
         sodipodi:end="5.1082657"
         sodipodi:start="4.3161992"
         transform="matrix(0,-1,1,0,55.431817,0.18181846)"
         d="m -46.306896,-39.357304 a 42.727272,24.727272 0 0 1 32.965087,-0.003"
         sodipodi:ry="24.727272"
         sodipodi:rx="42.727272"
         sodipodi:cy="-16.545454"
         sodipodi:cx="-29.818182"
         id="path4944"
         style="fill:none;stroke:#264878;stroke-opacity:0.21004567"
         sodipodi:type="arc" />
      <path
         sodipodi:type="arc"
         style="fill:none;stroke:#264878;stroke-opacity:0.13242008"
         id="path4946"
         sodipodi:cx="-29.818182"
         sodipodi:cy="-16.545454"
         sodipodi:rx="42.727272"
         sodipodi:ry="24.727272"
         d="m -46.306896,-39.357304 a 42.727272,24.727272 0 0 1 32.965087,-0.003"
         transform="matrix(0,-1,1,0,51.761363,0.18181846)"
         sodipodi:start="4.3161992"
         sodipodi:end="5.1082657"
         sodipodi:open="true" />
      <path
         sodipodi:open="true"
         sodipodi:end="5.1082657"
         sodipodi:start="4.3161992"
         transform="matrix(0,-1,1,0,48.090908,0.18181846)"
         d="m -46.306896,-39.357304 a 42.727272,24.727272 0 0 1 32.965087,-0.003"
         sodipodi:ry="24.727272"
         sodipodi:rx="42.727272"
         sodipodi:cy="-16.545454"
         sodipodi:cx="-29.818182"
         id="path4948"
         style="fill:none;stroke:#264878;stroke-opacity:0.11415525"
         sodipodi:type="arc" />
    </g>
  </g>
</svg>
